<?xml version="1.0" encoding="utf-8"?>
<!-- Generator: Adobe Illustrator 22.1.0, SVG Export Plug-In . SVG Version: 6.00 Build 0)  -->
<svg version="1.1" id="图层_1" xmlns="http://www.w3.org/2000/svg" xmlns:xlink="http://www.w3.org/1999/xlink" x="0px"
     y="0px"
     viewBox="0 0 400 400" style="enable-background:new 0 0 400 400;" xml:space="preserve">
<style type="text/css">
	.st0{fill:#606060;}
	.st1{fill:#F39B51;}
	.st2{fill:#FFCA6C;}
	.st3{fill:#BE3D41;}
	.st4{fill:#FFDDA6;}
	.st5{fill:none;stroke:#FAA05F;stroke-width:2;stroke-miterlimit:10;}
	.st6{fill:#F4AC56;}
	.st7{fill:none;stroke:#DB7C3B;stroke-width:2;stroke-miterlimit:10;}
	.st8{fill:none;stroke:#BE3D41;stroke-width:6;stroke-miterlimit:10;}
	.st9{fill:#FFF0DD;}
	.st10{fill:#C9D2ED;}
	.st11{fill:#D8DEEF;}
</style>
    <rect x="-541.6" y="695.1" class="st0" width="750.7" height="137.2"/>
    <polygon class="st1" points="339.7,346.5 28.2,346.5 28.2,128 340.8,132.4 "/>
    <polygon class="st2" points="26.9,129.9 115.8,40.7 368.1,42.4 338.5,132.3 "/>
    <polygon class="st3" points="366.2,222.5 340.2,346.5 338,132.6 367.1,44.3 "/>
    <polygon class="st4" points="290.9,42 235.6,131.5 138.2,131.1 215.2,41.3 "/>
    <line class="st5" x1="250.2" y1="42.4" x2="182.8" y2="132.1"/>
    <polygon class="st6" points="139.9,183.7 138.2,131.4 235.6,131.8 234.3,183.3 "/>
    <line class="st7" x1="183.4" y1="183.3" x2="183.4" y2="131.3"/>
    <polygon class="st8" points="80.9,193 44.6,192.7 44.5,148.6 80.9,148.6 "/>
    <polygon class="st9" points="95.8,93.9 130.8,52.1 248.1,52.5 221.8,94.6 "/>
    <polygon class="st10" points="110.6,89.9 138.8,56.2 233.3,56.6 212.2,90.5 "/>
    <polygon class="st11" points="121.7,86.4 129.8,77.7 214.3,77.9 209.1,86.7 "/>
    <g>
	<rect x="51.7" y="161.8" class="st3" width="5.7" height="16.2"/>
        <rect x="68.4" y="162.1" class="st3" width="5.7" height="16.2"/>
        <polygon class="st3" points="62,162.2 47.1,162.2 54.5,154.7 	"/>
        <polygon class="st3" points="78.8,162.4 63.6,162.4 71.2,154.7 	"/>
</g>
    <rect x="49.2" y="180.8" class="st3" width="27.4" height="6.9"/>
    <polygon class="st8" points="128.2,193.3 91.9,192.9 91.8,148.8 128.2,148.8 "/>
    <g>
	<path class="st3"
          d="M110.3,175.8L110.3,175.8c-6.7,0-12.2-5.4-12.2-12.2v-8h24.3v8C122.5,170.4,117.1,175.8,110.3,175.8z"/>
        <rect x="109" y="170.3" class="st3" width="2.6" height="15.8"/>
        <rect x="102.4" y="184.6" class="st3" width="15.8" height="3"/>
        <path class="st1" d="M102.3,153.8c0.3,0,3.7,0.3,3.7,0.3l-1.1,4.7c0,0,2.4,1,2.3,1.4c-0.1,0.3-2.7,2.9-2.7,2.9l-2.1,2.3
		c0,0,2.1-4.8,1.7-4.8s-1.7-0.9-1.7-0.9V153.8z"/>
</g>
</svg>
