<svg xml:space="preserve" style="enable-background:new 0 0 1024 1024;" viewBox="0 0 1024 1024" y="0px" x="0px"
     xmlns:xlink="http://www.w3.org/1999/xlink" xmlns="http://www.w3.org/2000/svg" id="图层_1" version="1.1">
<style type="text/css">
	.st0{fill-rule:evenodd;clip-rule:evenodd;fill:#EBF5FF;}
	.st1{fill-rule:evenodd;clip-rule:evenodd;fill:#D6EAFF;}
	.st2{fill-rule:evenodd;clip-rule:evenodd;fill:#B3D8FF;}
	.st3{fill-rule:evenodd;clip-rule:evenodd;fill:#80C0FF;}
	.st4{fill-rule:evenodd;clip-rule:evenodd;fill:url(#SVGID_1_);}
	.st5{fill-rule:evenodd;clip-rule:evenodd;fill:url(#SVGID_2_);}
	.st6{fill-rule:evenodd;clip-rule:evenodd;fill:url(#SVGID_3_);}
	.st7{fill-rule:evenodd;clip-rule:evenodd;fill:url(#SVGID_4_);}
	.st8{fill-rule:evenodd;clip-rule:evenodd;fill:url(#Arm-Left_1_);}
	.st9{fill-rule:evenodd;clip-rule:evenodd;fill:url(#Shirt_1_);}
	.st10{fill-rule:evenodd;clip-rule:evenodd;fill:url(#SVGID_5_);}
	.st11{fill-rule:evenodd;clip-rule:evenodd;fill:url(#SVGID_6_);}
	.st12{fill-rule:evenodd;clip-rule:evenodd;fill:url(#SVGID_7_);}
	.st13{fill-rule:evenodd;clip-rule:evenodd;fill:url(#SVGID_8_);}
	.st14{fill-rule:evenodd;clip-rule:evenodd;fill:url(#SVGID_9_);}
	.st15{fill-rule:evenodd;clip-rule:evenodd;fill:url(#SVGID_10_);}
	.st16{fill-rule:evenodd;clip-rule:evenodd;fill:url(#SVGID_11_);}
	.st17{fill:url(#SVGID_12_);}
	.st18{fill-rule:evenodd;clip-rule:evenodd;fill:url(#SVGID_13_);}
	.st19{fill-rule:evenodd;clip-rule:evenodd;fill:url(#SVGID_14_);}
	.st20{fill-rule:evenodd;clip-rule:evenodd;fill:url(#SVGID_15_);}
	.st21{fill-rule:evenodd;clip-rule:evenodd;fill:url(#SVGID_16_);}
	.st22{fill-rule:evenodd;clip-rule:evenodd;fill:url(#SVGID_17_);}
	.st23{fill-rule:evenodd;clip-rule:evenodd;fill:url(#Arm-Left1_1_);}
	.st24{fill-rule:evenodd;clip-rule:evenodd;fill:url(#Shirt1_1_);}
	.st25{fill-rule:evenodd;clip-rule:evenodd;fill:url(#SVGID_18_);}
	.st26{fill-rule:evenodd;clip-rule:evenodd;fill:url(#SVGID_19_);}
	.st27{fill-rule:evenodd;clip-rule:evenodd;fill:url(#SVGID_20_);}
	.st28{fill-rule:evenodd;clip-rule:evenodd;fill:url(#SVGID_21_);}
	.st29{fill-rule:evenodd;clip-rule:evenodd;fill:url(#SVGID_22_);}
	.st30{fill-rule:evenodd;clip-rule:evenodd;fill:url(#SVGID_23_);}
	.st31{fill-rule:evenodd;clip-rule:evenodd;fill:url(#SVGID_24_);}
	.st32{fill-rule:evenodd;clip-rule:evenodd;fill:url(#SVGID_25_);}
	.st33{fill-rule:evenodd;clip-rule:evenodd;fill:url(#SVGID_26_);}
</style>
    <g id="图层_2_1_">
	<g id="Online_Transportation_Car">
		<g id="Artboard11">
			<g id="Wall">
				<path d="M196.4,194.1c8.9-18.2,27.3-29.7,47.5-29.7h453.1c16.4,0,31.9,7.6,41.9,20.6l226,293.6
					c12.2,15.9,14.4,37.3,5.6,55.4l-144.3,296c-8.8,18.2-27.3,29.7-47.5,29.7H347.2c-16.4,0-31.9-7.6-41.9-20.6L66.2,528
					c-12.2-15.9-14.4-37.3-5.6-55.3L196.4,194.1z M57.3,652.2c3.3-6.8,11.6-9.7,18.4-6.3c1.9,0.9,3.6,2.3,4.9,4l144.4,187.6
					c4.6,6,3.5,14.6-2.5,19.3c-2.4,1.8-5.3,2.8-8.4,2.9h-63c-8.5,0-16.6-4-21.8-10.7l-92.4-120c-6.3-8.3-7.5-19.4-2.9-28.7
					C40.6,686.7,50.2,667,57.3,652.2L57.3,652.2z M882.2,164.4c8.5,0,16.6,4,21.8,10.7l83.1,108c6.3,8.3,7.5,19.4,2.9,28.7
					l-24.9,51.1c-3.3,6.8-11.6,9.7-18.4,6.3c-1.9-0.9-3.6-2.3-4.9-4L804.3,186.5c-4.6-6-3.5-14.6,2.5-19.3c2.4-1.8,5.3-2.8,8.3-2.8
					H882.2z" class="st0"></path>
                <path d="M169.1,765l55.9,72.5c4.6,6,3.5,14.6-2.5,19.3c-2.4,1.8-5.3,2.8-8.4,2.9H151c-8.5,0-16.6-4-21.8-10.7
					L64.7,765H169.1z M596.8,859.6H347.2c-16.4,0-31.9-7.6-41.9-20.6l-56.9-74h348.5L596.8,859.6L596.8,859.6z"
                      class="st1"></path>
			</g>
            <g id="Door">
				<path d="M596.9,206.9h158.8l181.4,235.7v159.7l-111,227.6c-8.8,18.2-27.3,29.7-47.5,29.7H596.9V206.9z M937.1,218.1
					V359L820,206.9h108.5L937.1,218.1L937.1,218.1z" class="st2"></path>
                <path d="M923,560.3c0-5-4-9-9-9l0,0l0,0c-5,0-9,4-9,9c0,0,0,0,0,0V619c0,5,4,9,9,9c0,0,0,0,0,0l0,0c5,0,9-4,9-9l0,0
					V560.3z" class="st3"></path>
                <path d="M750.3,859.6H642.9V606.4h107.3V859.6z M891,696.7l-64.9,133.3c-8.1,16.5-24.1,27.7-42.4,29.4v-253H891
					V696.7z M750.3,573H642.9V253h107.3V573z M791.1,253l100,129.9V573H783.7V253H791.1z M891,299.2L855.4,253H891V299.2z"
                      class="st3"></path>
			</g>
            <g id="Window">
				<path d="M508.3,625.8H141.3L66.2,528c-12.2-15.9-14.4-37.3-5.6-55.3l129.5-265.8h318.2V625.8z"
                      class="st3"></path>
                <path d="M522.8,625.8h-81.6l-208-418.9h81.6L522.8,625.8z M108.4,374.5l49.2-100.8l174.9,352.2h-99.3L108.4,374.5z"
                      class="st2"></path>
			</g>
            <g id="Pot">
				
					<linearGradient
                            gradientTransform="matrix(9.446925e-15 154.28 154.28 -9.446925e-15 24509.1562 333271.125)"
                            y2="-155.9567" x2="-2154.8767" y1="-155.9567" x1="-2155.4514" gradientUnits="userSpaceOnUse"
                            id="SVGID_1_">
					<stop style="stop-color:#B5FC4C" offset="0"></stop>
                        <stop style="stop-color:#00A491" offset="1"></stop>
				</linearGradient>
                <path d="M409,737.4c38.8-4.5,73.9,23.3,78.3,62.1c0.6,5.4,0.6,10.9,0,16.3c-38.8,4.5-73.8-23.3-78.3-62.1
					C408.4,748.2,408.4,742.8,409,737.4z" class="st4"></path>

                <linearGradient gradientTransform="matrix(0 154.28 -154.28 0 -26415.7402 333271.125)" y2="-174.6048"
                                x2="-2154.8767" y1="-174.6048" x1="-2155.4514" gradientUnits="userSpaceOnUse"
                                id="SVGID_2_">
					<stop style="stop-color:#B5FC4C" offset="0"></stop>
                    <stop style="stop-color:#00A491" offset="1"></stop>
				</linearGradient>
                <path d="M561.5,737.4c-38.8-4.5-73.9,23.3-78.3,62.1c-0.6,5.4-0.6,10.9,0,16.3c38.8,4.5,73.9-23.3,78.3-62.1
					C562.1,748.2,562.1,742.8,561.5,737.4z" class="st5"></path>

                <linearGradient gradientTransform="matrix(0 193.54 -193.54 0 -33001.1133 417910.5625)" y2="-173.0311"
                                x2="-2155.0149" y1="-173.0311" x1="-2155.5894" gradientUnits="userSpaceOnUse"
                                id="SVGID_3_">
					<stop style="stop-color:#B5FC4C" offset="0"></stop>
                    <stop style="stop-color:#00BC64" offset="1"></stop>
				</linearGradient>
                <path d="M487.3,704.9c30.6,24.2,35.7,68.7,11.5,99.3c-3.4,4.3-7.2,8.1-11.5,11.5c-30.6-24.2-35.8-68.7-11.5-99.3
					C479.2,712.2,483.1,708.3,487.3,704.9z" class="st6"></path>

                <linearGradient gradientTransform="matrix(0 105.89 -121.89 0 -21123.0254 229055.3594)" y2="-177.2772"
                                x2="-2155.0286" y1="-177.2772" x1="-2155.603" gradientUnits="userSpaceOnUse"
                                id="SVGID_4_">
					<stop style="stop-color:#FFFFFF" offset="0"></stop>
                    <stop style="stop-color:#CCEEFF" offset="1"></stop>
				</linearGradient>
                <path d="M568.4,817.7c0-6.7-5.4-12.1-12.1-12.1h-142c-6.7,0-12.1,5.4-12.1,12.1v41.9h166.3L568.4,817.7L568.4,817.7
					z" class="st7"></path>
			</g>
            <g id="Home-Owner">
				
					<linearGradient gradientTransform="matrix(0 315.59 -159.57 0 -27143.9844 680637)" y2="-173.9613"
                                    x2="-2154.7832" y1="-173.9613" x1="-2155.3577" gradientUnits="userSpaceOnUse"
                                    id="Arm-Left_1_">
					<stop style="stop-color:#FFC44C" offset="0"></stop>
                        <stop style="stop-color:#FF8618" offset="1"></stop>
				</linearGradient>
                <path d="M610.2,464.2c0.4-0.7,0.7-1.4,1.1-2.1c10.8-18.6,34.7-25,53.3-14.2
					c18.6,10.8,24.9,34.5,14.3,53.2L610,620.4l-64-37L610.2,464.2L610.2,464.2z" class="st8"
                      id="Arm-Left"></path>

                <linearGradient
                        gradientTransform="matrix(3.157323e-14 515.63 248.03 -1.518746e-14 40563.7656 1112003.5)"
                        y2="-160.6073" x2="-2155.2056" y1="-160.6073" x1="-2155.78" gradientUnits="userSpaceOnUse"
                        id="Shirt_1_">
					<stop style="stop-color:#396FC6" offset="0"></stop>
                    <stop style="stop-color:#1F4B93" offset="1"></stop>
				</linearGradient>
                <path d="M625.1,461.3c0-8.1,5.2-15.4,12.9-18.1c21.1-7.3,64.5-21.1,64.5-21.1h56.1l73,21.5v274.3H625.1
					V461.3z" class="st9" id="Shirt"></path>
                <g id="Head">
					
						<linearGradient gradientTransform="matrix(0 159.48 -162.87 0 -27541.2793 343670.1875)"
                                        y2="-173.463" x2="-2152.7698" y1="-173.463" x1="-2153.3445"
                                        gradientUnits="userSpaceOnUse" id="SVGID_5_">
						<stop style="stop-color:#396FC6" offset="0"></stop>
                            <stop style="stop-color:#1F4B93" offset="1"></stop>
					</linearGradient>
                    <path d="M675.9,351.1c0,0-34.2-14.4-33-54.9c0,0,27.1-16.2,46.5-29c24.3-16.1,61.3-5.2,68.3,21.3
						c0,0,14.8,4.9,20,23.9c4.4,16.1-11.3,38.7-11.3,38.7L675.9,351.1z" class="st10"></path>

                    <linearGradient gradientTransform="matrix(23.59 242.8 -176.72 32.41 21041.2891 528804.875)"
                                    y2="-172.4943" x2="-2153.1057" y1="-172.4304" x1="-2153.6804"
                                    gradientUnits="userSpaceOnUse" id="SVGID_6_">
						<stop style="stop-color:#FFBEAE" offset="0"></stop>
                        <stop style="stop-color:#FFB39F" offset="0.46"></stop>
                        <stop style="stop-color:#FF9678" offset="1"></stop>
					</linearGradient>
                    <path d="M758.3,373l0.2,48.9c0,0-22.2,16.3-34.1,24.7c-3.9,2.8-9.4,1.8-12.1-2.1c-0.1-0.1-0.1-0.2-0.2-0.3
						l-9.7-14.9V412l0,0c-16.3,2.1-31.2-9.5-33.3-25.9c-0.1-0.9-0.2-1.8-0.2-2.7c-0.9-25.3-2-56-2-56c46.8,7.2,62.7-18.1,62.7-18.1
						c5.5,18,11.2,29.4,16,36.6c6.5-5.6,16.3-4.9,22,1.6c5.6,6.5,4.9,16.3-1.6,22C763.8,371.3,761.2,372.5,758.3,373L758.3,373z"
                          class="st11"></path>

                    <linearGradient gradientTransform="matrix(43.69 0 0 43.88 93642.5078 7294.3853)" y2="-156.7349"
                                    x2="-2126.7588" y1="-156.7349" x1="-2127.3333" gradientUnits="userSpaceOnUse"
                                    id="SVGID_7_">
						<stop style="stop-color:#FF653F" offset="0"></stop>
                        <stop style="stop-color:#FF7A55" offset="1"></stop>
					</linearGradient>
                    <path d="M702.4,412c0,0,14.4-0.9,25-7.7c0,0,1.1,20.2-25,25.1V412z" class="st12"></path>
				</g>
                <g id="Pants">
					
						<linearGradient gradientTransform="matrix(0 500.36 -236.59 0 -39805.8242 1079328.5)"
                                        y2="-171.0873" x2="-2155.4148" y1="-171.0873" x1="-2155.9895"
                                        gradientUnits="userSpaceOnUse" id="SVGID_8_">
						<stop style="stop-color:#FFC44C" offset="0"></stop>
                            <stop style="stop-color:#FF7900" offset="1"></stop>
					</linearGradient>
                    <path d="M722.9,773.3l-10.7,86.2h-91.7l5.7-141L722.9,773.3L722.9,773.3z" class="st13"></path>

                    <linearGradient gradientTransform="matrix(0 370.79 -354.69 0 -59260.0273 800038.875)" y2="-169.1317"
                                    x2="-2155.3694" y1="-169.1317" x1="-2155.9438" gradientUnits="userSpaceOnUse"
                                    id="SVGID_9_">
						<stop style="stop-color:#FFC44C" offset="0"></stop>
                        <stop style="stop-color:#FF8618" offset="1"></stop>
					</linearGradient>
                    <path d="M650.8,773.3c-14.2,0-25.7-11.5-25.7-25.7c0-0.3,0-0.7,0-1l0,0v-28.8h206.4l2,97l-21.8,44.8h-71.4
						c0,0-9.6-64.3-12.3-81.9c-0.4-2.5-2.5-4.4-5.1-4.4L650.8,773.3L650.8,773.3z" class="st14"></path>
				</g>
                <g id="Package">
					
						<linearGradient
                                gradientTransform="matrix(2.128436e-14 347.6 208.78 -1.278409e-14 33566.9453 749757.8125)"
                                y2="-158.5721" x2="-2154.9541" y1="-158.5721" x1="-2155.5286"
                                gradientUnits="userSpaceOnUse" id="SVGID_10_">
						<stop style="stop-color:#FFCA80" offset="0"></stop>
                            <stop style="stop-color:#D46E11" offset="1"></stop>
					</linearGradient>
                    <path d="M383.4,497.9c0-5.1,4.1-9.1,9.2-9.1h144.6v193.7H392.6c-5.1,0-9.2-4.1-9.2-9.2V497.9z"
                          class="st15"></path>

                    <linearGradient
                            gradientTransform="matrix(2.128436e-14 347.6 245.86 -1.505458e-14 39968.7617 749757.8125)"
                            y2="-160.0992" x2="-2154.9541" y1="-160.0992" x1="-2155.5286" gradientUnits="userSpaceOnUse"
                            id="SVGID_11_">
						<stop style="stop-color:#FFDBA9" offset="0"></stop>
                        <stop style="stop-color:#D78842" offset="1"></stop>
					</linearGradient>
                    <path d="M516.3,497.9c0-5.1,4.1-9.1,9.2-9.1h162.7c5,0,9.1,4.1,9.1,9.1v175.4c0,5.1-4.1,9.2-9.1,9.2H525.5
						c-5.1,0-9.2-4.1-9.2-9.2V497.9z" class="st16"></path>

                    <linearGradient
                            gradientTransform="matrix(6.311218e-15 103.07 42.96 -2.630541e-15 6370.9556 222420.3125)"
                            y2="-134.1753" x2="-2152.7061" y1="-134.1753" x1="-2153.2805" gradientUnits="userSpaceOnUse"
                            id="SVGID_12_">
						<stop style="stop-color:#FFFFFF" offset="0"></stop>
                        <stop style="stop-color:#CCEEFF" offset="1"></stop>
					</linearGradient>
                    <rect height="52.5" width="58.6" class="st17" y="488.7" x="577.5"></rect>
				</g>
                <g id="Arm-Right">
					
						<linearGradient gradientTransform="matrix(52.16 138.75 -390.75 18.52 47236.4258 302591.4062)"
                                        y2="-168.5113" x2="-2153.6062" y1="-168.5752" x1="-2154.1809"
                                        gradientUnits="userSpaceOnUse" id="SVGID_13_">
						<stop style="stop-color:#FFBEAE" offset="0"></stop>
                            <stop style="stop-color:#FFB39F" offset="0.46"></stop>
                            <stop style="stop-color:#FF9678" offset="1"></stop>
					</linearGradient>
                    <path d="M861.8,619.4c0,20.4-16.6,37-37,37h-127l-27.1,1.4c-1.4,0.1-2.7-0.1-4.1-0.4l-26.5-6.2
						c-3.5-0.8-6-3.8-6.4-7.4c-0.7-7.3-1.9-19.9-2.7-28.5c-0.5-5.2,3.3-9.8,8.5-10.3c0,0,0.1,0,0.1,0l27.7-2.1l-1.9-16.8
						c-0.3-3.1,1.4-6,4.3-7.1l0.8-0.3c2.7-1,5.8-0.2,7.6,2.1l16,20l3.6-0.3l89.1-12.8l-0.2-5.4h75L861.8,619.4L861.8,619.4z"
                          class="st18"></path>

                    <linearGradient gradientTransform="matrix(0 45.68 -55.53 0 -9548.3145 98783.3906)" y2="-186.7868"
                                    x2="-2149.7324" y1="-186.7868" x1="-2150.3071" gradientUnits="userSpaceOnUse"
                                    id="SVGID_14_">
						<stop style="stop-color:#FFFFFF" offset="0"></stop>
                        <stop style="stop-color:#CCEEFF" offset="1"></stop>
					</linearGradient>
                    <path d="M861.8,559.2v23.3h-75l-0.7-23.3H861.8z" class="st19"></path>

                    <linearGradient gradientTransform="matrix(0 206.71 -90.18 0 -15295.5479 445848.4688)" y2="-178.7365"
                                    x2="-2154.1309" y1="-178.7365" x1="-2154.7053" gradientUnits="userSpaceOnUse"
                                    id="SVGID_15_">
						<stop style="stop-color:#FFC44C" offset="0"></stop>
                        <stop style="stop-color:#FF8618" offset="1"></stop>
					</linearGradient>
                    <path d="M786.1,559.2l-2.2-75c0-0.8,0-1.6,0-2.3c-0.4-21.6,16.7-39.4,38.2-39.8c21.6-0.4,39.4,16.7,39.8,38.2
						c0,0.5,0,1.1,0,1.6v77.4L786.1,559.2z" class="st20"></path>
				</g>
			</g>
            <g id="Delivery-Man">
				<g id="Pants1">
					
						<linearGradient gradientTransform="matrix(0 410.87 -320.5 0 -54492.5 886437.625)" y2="-170.7072"
                                        x2="-2155.3809" y1="-170.7072" x1="-2155.9553" gradientUnits="userSpaceOnUse"
                                        id="SVGID_16_">
						<stop style="stop-color:#3361AE" offset="0"></stop>
                            <stop style="stop-color:#1D478B" offset="1"></stop>
					</linearGradient>
                    <path d="M160.8,754.2l64.1,83.3c4.6,6,3.5,14.6-2.5,19.3c-2.4,1.8-5.3,2.8-8.4,2.9h-55.3L160.8,754.2L160.8,754.2
						z M279.6,773.3l-4,26.9l-36.5-47.4L279.6,773.3z" class="st21"></path>

                    <linearGradient gradientTransform="matrix(0 254.54 -197.22 0 -33962.8086 549466)" y2="-173.6829"
                                    x2="-2155.2832" y1="-173.6829" x1="-2155.8577" gradientUnits="userSpaceOnUse"
                                    id="SVGID_17_">
						<stop style="stop-color:#396FC6" offset="0"></stop>
                        <stop style="stop-color:#1F4B93" offset="1"></stop>
					</linearGradient>
                    <path d="M373,859.6h-25.8c-16.4,0-31.9-7.6-41.9-20.6L267.7,790l-1-8.2c-0.6-4.9-4.8-8.6-9.7-8.6h-2.2l-46-59.8
						h159.2L373,859.6L373,859.6z" class="st22"></path>
				</g>

                <linearGradient gradientTransform="matrix(-108.11 344.66 -523.53 -71.17 -321262.4062 731559.6875)"
                                y2="-168.883" x2="-2155.5564" y1="-168.8191" x1="-2156.1309"
                                gradientUnits="userSpaceOnUse" id="Arm-Left1_1_">
					<stop style="stop-color:#FFC44C" offset="0"></stop>
                    <stop style="stop-color:#FF8618" offset="1"></stop>
				</linearGradient>
                <path d="M146.9,471.7c5.3-20.9,26.6-33.5,47.5-28.2s33.5,26.6,28.2,47.5c-0.1,0.3-0.2,0.6-0.2,0.9
					c-0.2,0.8-0.4,1.5-0.7,2.3l-27,89.9l79.3,11.3v55.9H147c-20.5,0-37-16.6-37-37.1c0-3.4,0.5-6.8,1.4-10.2L146.9,471.7z"
                      class="st23" id="Arm-Left1"></path>

                <linearGradient gradientTransform="matrix(0 498.01 -498.01 0 -83802.5547 1074018.875)" y2="-168.8066"
                                x2="-2155.1899" y1="-168.8066" x1="-2155.7485" gradientUnits="userSpaceOnUse"
                                id="Shirt1_1_">
					<stop style="stop-color:#FF6666" offset="0"></stop>
                    <stop style="stop-color:#F4256B" offset="1"></stop>
				</linearGradient>
                <path d="M368.1,462.1c0-8.6-5.7-16.1-14-18.4l-62.4-17.6h-56.1l-48.3,11.3
					c-15.1,3.5-25.7,17-25.7,32.4v182.3l47.2,61.4h159.2V462.1L368.1,462.1z" class="st24"
                      id="Shirt1"></path>
                <g id="Head1">
					
						<linearGradient
                                gradientTransform="matrix(6.497976e-15 106.12 102.12 -6.253047e-15 15559.2041 228727.6719)"
                                y2="-149.8404" x2="-2151.6074" y1="-149.8404" x1="-2152.1819"
                                gradientUnits="userSpaceOnUse" id="SVGID_18_">
						<stop style="stop-color:#396FC6" offset="0"></stop>
                            <stop style="stop-color:#1F4B93" offset="1"></stop>
					</linearGradient>
                    <path d="M235.8,389.3c0,0-20.9-18.5-20.8-60.9h85l-29.9,60.9H235.8z" class="st25"></path>

                    <linearGradient gradientTransform="matrix(20.74 202.62 -155.36 27.05 17671.9492 441265.125)"
                                    y2="-175.4381" x2="-2152.344" y1="-175.3744" x1="-2152.9185"
                                    gradientUnits="userSpaceOnUse" id="SVGID_19_">
						<stop style="stop-color:#FFBEAE" offset="0"></stop>
                        <stop style="stop-color:#FFB39F" offset="0.46"></stop>
                        <stop style="stop-color:#FF9678" offset="1"></stop>
					</linearGradient>
                    <path d="M289.8,339.4l12.3-29.2l25.2,14.1c0,0-1.2,33.4-2.1,60.1c-0.6,16.5-14.4,29.3-30.8,28.8
						c-0.9,0-1.8-0.1-2.7-0.2l0,0v13.2h-56.1l0.2-36.9h33l9.2-21.9c-5.6-2.9-9.1-8.6-9.2-14.8c-0.1-7.9,6.2-14.5,14.2-14.6
						c0.5,0,1,0,1.4,0C286.3,338.2,288.1,338.6,289.8,339.4z" class="st26"></path>
                    <g id="Caps">
						
							<linearGradient
                                    gradientTransform="matrix(1.835746e-15 29.98 111.25 -6.812098e-15 17204.752 64487.9531)"
                                    y2="-151.6697" x2="-2140.3757" y1="-151.6697" x1="-2140.9504"
                                    gradientUnits="userSpaceOnUse" id="SVGID_20_">
							<stop style="stop-color:#FFC44C" offset="0"></stop>
                                <stop style="stop-color:#FF8618" offset="1"></stop>
						</linearGradient>
                        <path d="M306.2,328.4c0-9.5,7.6-17.2,17.1-17.2h16.3c9.5,0,17.2,7.6,17.2,17.1c0,0,0,0.1,0,0.1H306.2
							L306.2,328.4z" class="st27"></path>

                        <linearGradient gradientTransform="matrix(0 110.02 -270.68 0 -46151.7734 237017.0156)"
                                        y2="-171.5047" x2="-2151.3987" y1="-171.5047" x1="-2151.9731"
                                        gradientUnits="userSpaceOnUse" id="SVGID_21_">
							<stop style="stop-color:#FF6666" offset="0"></stop>
                            <stop style="stop-color:#F4256B" offset="1"></stop>
						</linearGradient>
                        <path d="M327.2,306.9c0-23.1-18.8-41.9-41.9-41.9c0,0,0,0,0,0h-28.3c-23.1,0-41.9,18.7-41.9,41.9c0,0,0,0,0,0
							v21.6h112.2V306.9z" class="st28"></path>

                        <linearGradient gradientTransform="matrix(0 124.54 -39.44 0 -7810.542 268341.9688)"
                                        y2="-205.6502" x2="-2151.8684" y1="-205.6502" x1="-2152.4429"
                                        gradientUnits="userSpaceOnUse" id="SVGID_22_">
							<stop style="stop-color:#FFFFFF" offset="0"></stop>
                            <stop style="stop-color:#CCEEFF" offset="1"></stop>
						</linearGradient>
                        <path d="M273.4,265h11.9c23.2,0,41.9,18.8,41.9,41.9c0,0,0,0,0,0v21.6h-11.9v-21.6
							C315.3,283.7,296.5,265,273.4,265z" class="st29"></path>
					</g>

                    <linearGradient gradientTransform="matrix(-26.56 0 0 34.99 -58568.3906 5827.1597)" y2="-154.5784"
                                    x2="-2215.5496" y1="-154.5784" x1="-2216.124" gradientUnits="userSpaceOnUse"
                                    id="SVGID_23_">
						<stop style="stop-color:#FF653F" offset="0"></stop>
                        <stop style="stop-color:#FF7A55" offset="1"></stop>
					</linearGradient>
                    <path d="M291.7,412.9l-15.2-2.6l12.4,16.3h2.8V412.9z" class="st30"></path>

                    <linearGradient gradientTransform="matrix(-48.98 20.02 -237.18 -4.13 -146228.75 42510.9727)"
                                    y2="-175.9904" x2="-2138.6492" y1="-175.8786" x1="-2139.2239"
                                    gradientUnits="userSpaceOnUse" id="SVGID_24_">
						<stop style="stop-color:#FFC44C" offset="0"></stop>
                        <stop style="stop-color:#FF8618" offset="1"></stop>
					</linearGradient>
                    <path d="M229.9,418.9c0.7-1.6,2.2-2.6,3.9-2.6h57.9l8.3,12.1h-74.3L229.9,418.9z" class="st31"></path>
				</g>
                <g id="Arm-Right1">
					
						<linearGradient gradientTransform="matrix(15.1 138.75 -113.13 18.52 12958.9326 302584.0938)"
                                        y2="-177.5309" x2="-2152.3809" y1="-177.4989" x1="-2152.9556"
                                        gradientUnits="userSpaceOnUse" id="SVGID_25_">
						<stop style="stop-color:#FFBEAE" offset="0"></stop>
                            <stop style="stop-color:#FFB39F" offset="0.46"></stop>
                            <stop style="stop-color:#FF9678" offset="1"></stop>
					</linearGradient>
                    <path d="M508.8,596.7l16-20c1.8-2.3,4.9-3.2,7.6-2.1l0.8,0.3c2.9,1.1,4.7,4,4.3,7.1l-2,16.8l27.7,2.2
						c2.5,0.2,4.8,1.4,6.5,3.3c1.6,1.9,2.4,4.4,2.2,6.9c-0.8,8.7-2,21.2-2.7,28.5c-0.3,3.6-2.9,6.5-6.4,7.4l-26.5,6.2
						c-1.3,0.3-2.7,0.4-4.1,0.4l-27.1-1.4v-55.9L508.8,596.7L508.8,596.7z" class="st32"></path>

                    <linearGradient gradientTransform="matrix(0 366.09 -439.11 0 -73801.0859 789550.375)" y2="-168.9928"
                                    x2="-2154.9385" y1="-168.9928" x1="-2155.5129" gradientUnits="userSpaceOnUse"
                                    id="SVGID_26_">
						<stop style="stop-color:#FFC44C" offset="0"></stop>
                        <stop style="stop-color:#FF8618" offset="1"></stop>
					</linearGradient>
                    <path d="M306.8,491.8c-5.6-20.8,6.8-42.2,27.6-47.8c20.8-5.6,42.2,6.8,47.8,27.6l0,0c0.2,0.8,0.4,1.6,0.5,2.3
						l25.7,108.7l96.7,13.8v55.9h-127c-17,0-31.8-11.6-35.9-28.1L306.8,491.8L306.8,491.8z"
                          class="st33"></path>
				</g>
			</g>
		</g>
	</g>
</g>
</svg>
